<svg id="visual" viewBox="0 0 900 450" width="900" height="450" xmlns="http://www.w3.org/2000/svg" xmlns:xlink="http://www.w3.org/1999/xlink" version="1.1"><rect x="0" y="0" width="900" height="450" fill="#d1dee8"></rect><path d="M0 312L21.5 303.8C43 295.7 86 279.3 128.8 281.7C171.7 284 214.3 305 257.2 310.3C300 315.7 343 305.3 385.8 301C428.7 296.7 471.3 298.3 514.2 303.5C557 308.7 600 317.3 642.8 321.3C685.7 325.3 728.3 324.7 771.2 325.3C814 326 857 328 878.5 329L900 330L900 451L878.5 451C857 451 814 451 771.2 451C728.3 451 685.7 451 642.8 451C600 451 557 451 514.2 451C471.3 451 428.7 451 385.8 451C343 451 300 451 257.2 451C214.3 451 171.7 451 128.8 451C86 451 43 451 21.5 451L0 451Z" fill="#69d7fa"></path><path d="M0 306L21.5 306.8C43 307.7 86 309.3 128.8 309C171.7 308.7 214.3 306.3 257.2 308.5C300 310.7 343 317.3 385.8 323.7C428.7 330 471.3 336 514.2 336.5C557 337 600 332 642.8 333.5C685.7 335 728.3 343 771.2 345.5C814 348 857 345 878.5 343.5L900 342L900 451L878.5 451C857 451 814 451 771.2 451C728.3 451 685.7 451 642.8 451C600 451 557 451 514.2 451C471.3 451 428.7 451 385.8 451C343 451 300 451 257.2 451C214.3 451 171.7 451 128.8 451C86 451 43 451 21.5 451L0 451Z" fill="#30c0fe"></path><path d="M0 355L21.5 351.7C43 348.3 86 341.7 128.8 337.7C171.7 333.7 214.3 332.3 257.2 336.8C300 341.3 343 351.7 385.8 356C428.7 360.3 471.3 358.7 514.2 352.8C557 347 600 337 642.8 336.2C685.7 335.3 728.3 343.7 771.2 351C814 358.3 857 364.7 878.5 367.8L900 371L900 451L878.5 451C857 451 814 451 771.2 451C728.3 451 685.7 451 642.8 451C600 451 557 451 514.2 451C471.3 451 428.7 451 385.8 451C343 451 300 451 257.2 451C214.3 451 171.7 451 128.8 451C86 451 43 451 21.5 451L0 451Z" fill="#00a7ff"></path><path d="M0 404L21.5 403.3C43 402.7 86 401.3 128.8 400.5C171.7 399.7 214.3 399.3 257.2 393.5C300 387.7 343 376.3 385.8 375C428.7 373.7 471.3 382.3 514.2 384.7C557 387 600 383 642.8 382C685.7 381 728.3 383 771.2 382.7C814 382.3 857 379.7 878.5 378.3L900 377L900 451L878.5 451C857 451 814 451 771.2 451C728.3 451 685.7 451 642.8 451C600 451 557 451 514.2 451C471.3 451 428.7 451 385.8 451C343 451 300 451 257.2 451C214.3 451 171.7 451 128.8 451C86 451 43 451 21.5 451L0 451Z" fill="#008aff"></path><path d="M0 423L21.5 418.8C43 414.7 86 406.3 128.8 403.8C171.7 401.3 214.3 404.7 257.2 404.8C300 405 343 402 385.8 403.8C428.7 405.7 471.3 412.3 514.2 416.2C557 420 600 421 642.8 419.7C685.7 418.3 728.3 414.7 771.2 409.8C814 405 857 399 878.5 396L900 393L900 451L878.5 451C857 451 814 451 771.2 451C728.3 451 685.7 451 642.8 451C600 451 557 451 514.2 451C471.3 451 428.7 451 385.8 451C343 451 300 451 257.2 451C214.3 451 171.7 451 128.8 451C86 451 43 451 21.5 451L0 451Z" fill="#0066ff"></path></svg>